#define corner_rb_width 8
#define corner_rb_height 16
static unsigned char corner_rb_bits[] = {
   0xc0, 0xc0, 0xc0, 0xc0, 0xc0, 0xc0, 0xc0, 0xc0, 0xc0, 0xc0, 0xe0, 0xf0,
   0xf8, 0xfc, 0xfe, 0xff };
