#define dot_empty_16_width 16
#define dot_empty_16_height 16
static unsigned char dot_empty_16_bits[] = {
   0x00, 0x00, 0x00, 0x00, 0x00, 0x00, 0x00, 0x00, 0xc0, 0x03, 0x20, 0x04,
   0x10, 0x08, 0x10, 0x08, 0x10, 0x08, 0x10, 0x08, 0x20, 0x04, 0xc0, 0x03,
   0x00, 0x00, 0x00, 0x00, 0x00, 0x00, 0x00, 0x00 };
