#define left_div_width 8
#define left_div_height 14
static unsigned char left_div_bits[] = {
   0x01, 0x03, 0x07, 0x0f, 0x1f, 0x3f, 0x7f, 0x7f, 0x3f, 0x1f, 0x0f, 0x07,
   0x03, 0x01 };
