#define left_round_dent_width 18
#define left_round_dent_height 16
static unsigned char left_round_dent_bits[] = {
   0xc0, 0x99, 0x03, 0xf0, 0x99, 0x03, 0xf8, 0x99, 0x03, 0xfc, 0x99, 0x03,
   0xfc, 0x99, 0x03, 0xfe, 0x99, 0x03, 0xfe, 0x3c, 0x03, 0x7e, 0x7e, 0x02,
   0x7e, 0x7e, 0x02, 0xfe, 0x3c, 0x03, 0xfe, 0x99, 0x03, 0xfc, 0x99, 0x03,
   0xfc, 0x99, 0x03, 0xf8, 0x99, 0x03, 0xf0, 0x99, 0x03, 0xc0, 0x99, 0x03 };
