#define ls_div2_width 16
#define ls_div2_height 16
static unsigned char ls_div2_bits[] = {
   0x00, 0x8e, 0x00, 0xc7, 0x00, 0xc7, 0x80, 0xe3, 0x80, 0xe3, 0xc0, 0xf1,
   0xe0, 0xf8, 0xe0, 0xf8, 0x70, 0xfc, 0x70, 0xfc, 0x38, 0xfe, 0x1c, 0xff,
   0x1c, 0xff, 0x8e, 0xff, 0x8e, 0xff, 0xc7, 0xff };
