#define ls_div_width 14
#define ls_div_height 16
static unsigned char ls_div_bits[] = {
   0xff, 0x23, 0xff, 0x31, 0xff, 0x31, 0xff, 0x38, 0xff, 0x38, 0x7f, 0x3c,
   0x3f, 0x3e, 0x3f, 0x3e, 0x1f, 0x3f, 0x1f, 0x3f, 0x8f, 0x3f, 0xc7, 0x3f,
   0xc7, 0x3f, 0xe3, 0x3f, 0xe3, 0x3f, 0xf1, 0x3f };
