#define mouse_width 8
#define mouse_height 16
static unsigned char mouse_bits[] = {
   0x00, 0x00, 0x00, 0x00, 0xee, 0xee, 0xee, 0x82, 0xfe, 0xfe, 0xfe, 0x7c,
   0x00, 0x00, 0x00, 0x00 };
