#define right_div_width 8
#define right_div_height 14
static unsigned char right_div_bits[] = {
   0x80, 0xc0, 0xe0, 0xf0, 0xf8, 0xfc, 0xfe, 0xfe, 0xfc, 0xf8, 0xf0, 0xe0,
   0xc0, 0x80 };
