#define right_round_dent_width 18
#define right_round_dent_height 16
static unsigned char right_round_dent_bits[] = {
   0x67, 0x0e, 0x00, 0x67, 0x3e, 0x00, 0x67, 0x7e, 0x00, 0x67, 0xfe, 0x00,
   0x67, 0xfe, 0x00, 0x67, 0xfe, 0x01, 0xf3, 0xfc, 0x01, 0xf9, 0xf9, 0x01,
   0xf9, 0xf9, 0x01, 0xf3, 0xfc, 0x01, 0x67, 0xfe, 0x01, 0x67, 0xfe, 0x00,
   0x67, 0xfe, 0x00, 0x67, 0x7e, 0x00, 0x67, 0x3e, 0x00, 0x67, 0x0e, 0x00 };
