#define rs_div2_width 16
#define rs_div2_height 16
static unsigned char rs_div2_bits[] = {
   0x71, 0x00, 0xe3, 0x00, 0xe3, 0x00, 0xc7, 0x01, 0xc7, 0x01, 0x8f, 0x03,
   0x1f, 0x07, 0x1f, 0x07, 0x3f, 0x0e, 0x3f, 0x0e, 0x7f, 0x1c, 0xff, 0x38,
   0xff, 0x38, 0xff, 0x71, 0xff, 0x71, 0xff, 0xe3 };
