#define rs_div_start_width 10
#define rs_div_start_height 16
static unsigned char rs_div_start_bits[] = {
   0x01, 0x00, 0x03, 0x00, 0x03, 0x00, 0x07, 0x00, 0x07, 0x00, 0x0f, 0x00,
   0x1f, 0x00, 0x1f, 0x00, 0x3f, 0x00, 0x3f, 0x00, 0x7f, 0x00, 0xff, 0x00,
   0xff, 0x00, 0xff, 0x01, 0xff, 0x01, 0xff, 0x03 };
