#define corner_lt_width 8
#define corner_lt_height 16
static unsigned char corner_lt_bits[] = {
   0xff, 0x7f, 0x3f, 0x1f, 0x0f, 0x07, 0x03, 0x03, 0x03, 0x03, 0x03, 0x03,
   0x03, 0x03, 0x03, 0x03 };
