#define layout_tall_width 15
#define layout_tall_height 16
static unsigned char layout_tall_bits[] = {
   0x00, 0x00, 0x00, 0x00, 0x00, 0x00, 0xff, 0x7f, 0x81, 0x40, 0x81, 0x40,
   0x81, 0x40, 0x81, 0x7f, 0x81, 0x40, 0x81, 0x40, 0x81, 0x40, 0xff, 0x7f,
   0x00, 0x00, 0x00, 0x00, 0x00, 0x00, 0x00, 0x00 };
