#define ls_start_width 10
#define ls_start_height 16
static unsigned char ls_start_bits[] = {
   0x00, 0x02, 0x00, 0x03, 0x00, 0x03, 0x80, 0x03, 0x80, 0x03, 0xc0, 0x03,
   0xe0, 0x03, 0xe0, 0x03, 0xf0, 0x03, 0xf0, 0x03, 0xf8, 0x03, 0xfc, 0x03,
   0xfc, 0x03, 0xfe, 0x03, 0xfe, 0x03, 0xff, 0x03 };
