#define mem2_width 14
#define mem2_height 14
static unsigned char mem2_bits[] = {
   0x00, 0x00, 0x00, 0x00, 0x00, 0x00, 0x50, 0x05, 0x00, 0x00, 0xf0, 0x07,
   0xf0, 0x07, 0xf0, 0x07, 0xf0, 0x07, 0x00, 0x00, 0x50, 0x05, 0x00, 0x00,
   0x00, 0x00, 0x00, 0x00 };
