#define net_down_width 8
#define net_down_height 16
static unsigned char net_down_bits[] = {
   0x00, 0x00, 0x00, 0x00, 0x38, 0x38, 0x38, 0x38, 0xfe, 0x7c, 0x38, 0x10,
   0x00, 0x00, 0x00, 0x00 };
