#define net_up_width 8
#define net_up_height 16
static unsigned char net_up_bits[] = {
   0x00, 0x00, 0x00, 0x00, 0x10, 0x38, 0x7c, 0xfe, 0x38, 0x38, 0x38, 0x38,
   0x00, 0x00, 0x00, 0x00 };
