#define dot_half_16_width 16
#define dot_half_16_height 16
static unsigned char dot_half_16_bits[] = {
   0x00, 0x00, 0x00, 0x00, 0x00, 0x00, 0x00, 0x00, 0xc0, 0x03, 0x20, 0x04,
   0x10, 0x0c, 0x10, 0x0e, 0x10, 0x0f, 0x90, 0x0f, 0xe0, 0x07, 0xc0, 0x03,
   0x00, 0x00, 0x00, 0x00, 0x00, 0x00, 0x00, 0x00 };
