#define full_bat_width 14
#define full_bat_height 16
static unsigned char full_bat_bits[] = {
   0x00, 0x00, 0x00, 0x00, 0x00, 0x00, 0xff, 0x0f, 0x01, 0x08, 0xfd, 0x3b,
   0xfd, 0x2b, 0xfd, 0x2b, 0xfd, 0x2b, 0xfd, 0x3b, 0x01, 0x08, 0xff, 0x0f,
   0x00, 0x00, 0x00, 0x00, 0x00, 0x00, 0x00, 0x00 };
