#define left_inside_div_width 12
#define left_inside_div_height 16
static unsigned char left_inside_div_bits[] = {
   0x00, 0x0f, 0x81, 0x0f, 0xc3, 0x0f, 0xc3, 0x0f, 0xc7, 0x0f, 0xc7, 0x0f,
   0x8f, 0x0f, 0x8f, 0x0f, 0x1f, 0x0f, 0x1f, 0x0f, 0x3f, 0x0e, 0x3f, 0x0e,
   0x3f, 0x0c, 0x3f, 0x0c, 0x1f, 0x08, 0x0f, 0x00 };
