#define left_round_width 8
#define left_round_height 16
static unsigned char left_round_bits[] = {
   0xe0, 0xf8, 0xfc, 0xfe, 0xfe, 0xff, 0xff, 0xff, 0xff, 0xff, 0xff, 0xfe,
   0xfe, 0xfc, 0xf8, 0xe0 };
