#define net_both_width 12
#define net_both_height 16
static unsigned char net_both_bits[] = {
   0x00, 0x00, 0x00, 0x00, 0x00, 0x00, 0x10, 0x00, 0x98, 0x01, 0x9c, 0x01,
   0x9e, 0x01, 0x98, 0x01, 0x98, 0x01, 0x98, 0x07, 0x98, 0x03, 0x98, 0x01,
   0x80, 0x00, 0x00, 0x00, 0x00, 0x00, 0x00, 0x00 };
