#define plug_width 8
#define plug_height 16
static unsigned char plug_bits[] = {
   0x00, 0x00, 0x00, 0x00, 0x30, 0x28, 0xe4, 0x27, 0x27, 0xe4, 0x28, 0x30,
   0x00, 0x00, 0x00, 0x00 };
