#define right_round_width 8
#define right_round_height 16
static unsigned char right_round_bits[] = {
   0x07, 0x1f, 0x3f, 0x7f, 0x7f, 0xff, 0xff, 0xff, 0xff, 0xff, 0xff, 0x7f,
   0x7f, 0x3f, 0x1f, 0x07 };
