#define spkr_width 8
#define spkr_height 16
static unsigned char spkr_bits[] = {
   0x00, 0x00, 0x00, 0x00, 0x08, 0x4c, 0x8f, 0xaf, 0xaf, 0x8f, 0x4c, 0x08,
   0x00, 0x00, 0x00, 0x00 };
