#define zap_width 9
#define zap_height 16
static unsigned char zap_bits[] = {
   0x00, 0x00, 0x00, 0x00, 0x00, 0x00, 0x70, 0x00, 0x70, 0x00, 0x30, 0x00,
   0x18, 0x00, 0x1c, 0x00, 0x70, 0x00, 0x30, 0x00, 0x18, 0x00, 0x18, 0x00,
   0x08, 0x00, 0x00, 0x00, 0x00, 0x00, 0x00, 0x00 };
