#define layout_float_width 15
#define layout_float_height 9
static unsigned char layout_float_bits[] = {
   0xff, 0x7f, 0x81, 0x40, 0x81, 0x40, 0x81, 0x40, 0xff, 0x7f, 0x01, 0x40,
   0x01, 0x40, 0x01, 0x40, 0xff, 0x7f };
