#define battery2_width 13
#define battery2_height 13
static char battery2_bits[] = {
  0xF0, 0x01, 0xFC, 0x07, 0x04, 0x04, 0x04, 0x04, 0x44, 0x04, 0x44, 0x04, 
  0xE4, 0x04, 0xEC, 0x04, 0x44, 0x04, 0x04, 0x04, 0x04, 0x04, 0x04, 0x04, 
  0xDC, 0x07, };
