#define left_div2_width 8
#define left_div2_height 14
static unsigned char left_div2_bits[] = {
   0x02, 0x06, 0x0e, 0x1e, 0x3e, 0x7e, 0xfe, 0xfe, 0x7e, 0x3e, 0x1e, 0x0e,
   0x06, 0x02 };
