#define left_div_2_width 10
#define left_div_2_height 16
static unsigned char left_div_2_bits[] = {
   0x01, 0x00, 0x03, 0x00, 0x07, 0x00, 0x0f, 0x00, 0x1f, 0x00, 0x3f, 0x00,
   0x7f, 0x00, 0xff, 0x00, 0xff, 0x00, 0x7f, 0x00, 0x3f, 0x00, 0x1f, 0x00,
   0x0f, 0x00, 0x07, 0x00, 0x03, 0x00, 0x01, 0x00 };
