#define sharp_div_width 10
#define sharp_div_height 18
static unsigned char sharp_div_bits[] = {
   0x01, 0x00, 0x03, 0x00, 0x07, 0x00, 0x0f, 0x00, 0x1f, 0x00, 0x3f, 0x00,
   0x7f, 0x00, 0xff, 0x00, 0xff, 0x01, 0xff, 0x01, 0xff, 0x00, 0x7f, 0x00,
   0x3f, 0x00, 0x1f, 0x00, 0x0f, 0x00, 0x07, 0x00, 0x03, 0x00, 0x01, 0x00 };
