#define right_div_width 10
#define right_div_height 18
static unsigned char right_div_bits[] = {
   0x00, 0x02, 0x00, 0x03, 0x80, 0x03, 0xc0, 0x03, 0xe0, 0x03, 0xf0, 0x03,
   0xf8, 0x03, 0xfc, 0x03, 0xfe, 0x03, 0xfe, 0x03, 0xfc, 0x03, 0xf8, 0x03,
   0xf0, 0x03, 0xe0, 0x03, 0xc0, 0x03, 0x80, 0x03, 0x00, 0x03, 0x00, 0x02 };
